<svg width="110" height="35" viewBox="0 0 110 35" fill="none" xmlns="http://www.w3.org/2000/svg">
<g clip-path="url(#clip0_57_5)">
<path d="M57.9458 9.04254C57.9458 10.2678 56.9583 11.2548 55.7324 11.2548C54.5065 11.2548 53.519 10.2678 53.519 9.04254C53.519 7.81732 54.4725 6.83033 55.7324 6.83033C56.9923 6.86436 57.9458 7.85135 57.9458 9.04254ZM48.8199 13.501C48.8199 13.7052 48.8199 14.0455 48.8199 14.0455C48.8199 14.0455 47.7643 12.6842 45.5168 12.6842C41.8052 12.6842 38.9108 15.509 38.9108 19.4229C38.9108 23.3028 41.7711 26.1617 45.5168 26.1617C47.7983 26.1617 48.8199 24.7663 48.8199 24.7663V25.3448C48.8199 25.6171 49.0242 25.8213 49.2966 25.8213H52.0548V13.0245C52.0548 13.0245 49.535 13.0245 49.2966 13.0245C49.0242 13.0245 48.8199 13.2628 48.8199 13.501ZM48.8199 21.7032C48.3091 22.452 47.2875 23.0986 46.0617 23.0986C43.8823 23.0986 42.2138 21.7372 42.2138 19.4229C42.2138 17.1086 43.8823 15.7472 46.0617 15.7472C47.2535 15.7472 48.3431 16.4279 48.8199 17.1426V21.7032ZM54.0979 13.0245H57.3669V25.8213H54.0979V13.0245ZM102.928 12.6842C100.681 12.6842 99.6252 14.0455 99.6252 14.0455V6.86436H96.3563V25.8213C96.3563 25.8213 98.8761 25.8213 99.1145 25.8213C99.3869 25.8213 99.5912 25.5831 99.5912 25.3448V24.7663C99.5912 24.7663 100.647 26.1617 102.894 26.1617C106.606 26.1617 109.5 23.3028 109.5 19.4229C109.5 15.543 106.606 12.6842 102.928 12.6842ZM102.383 23.0646C101.124 23.0646 100.136 22.4179 99.6252 21.6692V17.1086C100.136 16.4279 101.226 15.7132 102.383 15.7132C104.563 15.7132 106.231 17.0746 106.231 19.3889C106.231 21.7032 104.563 23.0646 102.383 23.0646ZM94.6537 18.2317V25.8554H91.3847V18.6061C91.3847 16.496 90.7037 15.6451 88.8648 15.6451C87.8773 15.6451 86.8558 16.1557 86.2088 16.9044V25.8213H82.9398V13.0245H85.5278C85.8002 13.0245 86.0045 13.2628 86.0045 13.501V14.0455C86.9579 13.0586 88.2179 12.6842 89.4778 12.6842C90.908 12.6842 92.0998 13.0926 93.0532 13.9094C94.211 14.8624 94.6537 16.0876 94.6537 18.2317ZM75.0057 12.6842C72.7583 12.6842 71.7027 14.0455 71.7027 14.0455V6.86436H68.4337V25.8213C68.4337 25.8213 70.9536 25.8213 71.1919 25.8213C71.4643 25.8213 71.6687 25.5831 71.6687 25.3448V24.7663C71.6687 24.7663 72.7243 26.1617 74.9717 26.1617C78.6833 26.1617 81.5778 23.3028 81.5778 19.4229C81.6118 15.543 78.7174 12.6842 75.0057 12.6842ZM74.4609 23.0646C73.201 23.0646 72.2135 22.4179 71.7027 21.6692V17.1086C72.2135 16.4279 73.3031 15.7132 74.4609 15.7132C76.6402 15.7132 78.3088 17.0746 78.3088 19.3889C78.3088 21.7032 76.6402 23.0646 74.4609 23.0646ZM65.6074 12.6842C66.5949 12.6842 67.1057 12.8544 67.1057 12.8544V15.8834C67.1057 15.8834 64.3816 14.9645 62.679 16.9044V25.8554H59.41V13.0245C59.41 13.0245 61.9298 13.0245 62.1682 13.0245C62.4406 13.0245 62.6449 13.2628 62.6449 13.501V14.0455C63.2579 13.3308 64.5859 12.6842 65.6074 12.6842ZM31.6577 24.6642C31.4875 24.2558 31.3172 23.8133 31.1469 23.4389C30.8745 22.8263 30.6021 22.2477 30.3638 21.7032L30.3297 21.6692C27.9801 16.5641 25.4603 11.3909 22.8042 6.28579L22.7021 6.08158C22.4297 5.57107 22.1573 5.02653 21.8848 4.48198C21.5443 3.86937 21.2038 3.22272 20.659 2.61011C19.5693 1.24875 18.0029 0.5 16.3344 0.5C14.6318 0.5 13.0995 1.24875 11.9758 2.54204C11.465 3.15465 11.0904 3.8013 10.7499 4.41391C10.4775 4.95846 10.2051 5.503 9.93264 6.01351L9.83048 6.21772C7.20849 11.3228 4.6546 16.496 2.30502 21.6011L2.27097 21.6692C2.03261 22.2137 1.76019 22.7923 1.48778 23.4049C1.31752 23.7793 1.14726 24.1877 0.977 24.6301C0.534326 25.8894 0.398119 27.0806 0.568378 28.3058C0.942948 30.8584 2.64554 33.0025 4.99512 33.9555C5.88047 34.3298 6.79987 34.5 7.75332 34.5C8.02573 34.5 8.36625 34.466 8.63867 34.4319C9.76238 34.2958 10.9201 33.9214 12.0439 33.2748C13.44 32.492 14.768 31.3689 16.2663 29.7352C17.7646 31.3689 19.1266 32.492 20.4887 33.2748C21.6124 33.9214 22.7702 34.2958 23.8939 34.4319C24.1663 34.466 24.5068 34.5 24.7793 34.5C25.7327 34.5 26.6862 34.3298 27.5375 33.9555C29.9211 33.0025 31.5896 30.8243 31.9642 28.3058C32.2366 27.1146 32.1004 25.9234 31.6577 24.6642ZM16.3003 26.4339C14.4615 24.1196 13.2697 21.9414 12.8611 20.1036C12.6908 19.3208 12.6568 18.6401 12.7589 18.0275C12.827 17.483 13.0314 17.0065 13.3038 16.5981C13.9508 15.6792 15.0404 15.1006 16.3003 15.1006C17.5603 15.1006 18.684 15.6451 19.2969 16.5981C19.5693 17.0065 19.7736 17.483 19.8417 18.0275C19.9439 18.6401 19.9098 19.3549 19.7396 20.1036C19.331 21.9074 18.1391 24.0856 16.3003 26.4339ZM29.887 28.0335C29.6487 29.8033 28.4568 31.3348 26.7883 32.0155C25.9711 32.3559 25.0857 32.458 24.2004 32.3559C23.3491 32.2538 22.4978 31.9815 21.6124 31.471C20.3866 30.7903 19.1607 29.7352 17.7305 28.1697C19.9779 25.4129 21.34 22.8944 21.8508 20.6481C22.0892 19.5931 22.1232 18.6401 22.021 17.7553C21.8848 16.9044 21.5784 16.1216 21.1017 15.4409C20.046 13.9094 18.2753 13.0245 16.3003 13.0245C14.3253 13.0245 12.5546 13.9434 11.499 15.4409C11.0223 16.1216 10.7158 16.9044 10.5796 17.7553C10.4434 18.6401 10.4775 19.6271 10.7499 20.6481C11.2607 22.8944 12.6568 25.4469 14.8702 28.2037C13.474 29.7693 12.2141 30.8243 10.9882 31.505C10.1029 32.0155 9.2516 32.2878 8.40031 32.3899C7.48091 32.492 6.59556 32.3559 5.81236 32.0495C4.14382 31.3689 2.95201 29.8373 2.71364 28.0676C2.61149 27.2167 2.67959 26.3659 3.02011 25.4129C3.12227 25.0726 3.29253 24.7322 3.46279 24.3238C3.70115 23.7793 3.97356 23.2007 4.24598 22.6221L4.28003 22.5541C6.62961 17.483 9.14945 12.3098 11.7714 7.27277L11.8736 7.06857C12.146 6.55806 12.4184 6.01351 12.6908 5.503C12.9633 4.95846 13.2697 4.44795 13.6443 4.00551C14.3594 3.18869 15.3128 2.74625 16.3684 2.74625C17.424 2.74625 18.3775 3.18869 19.0926 4.00551C19.4672 4.44795 19.7736 4.95846 20.046 5.503C20.3185 6.01351 20.5909 6.55806 20.8633 7.06857L20.9654 7.27277C23.5534 12.3438 26.0732 17.517 28.4228 22.5881V22.6221C28.6952 23.1667 28.9336 23.7793 29.206 24.3238C29.3763 24.7322 29.5465 25.0726 29.6487 25.4129C29.9211 26.2978 30.0232 27.1486 29.887 28.0335Z" fill="#F5DEB3"/>
</g>
<defs>
<clipPath id="clip0_57_5">
<rect width="109" height="34" fill="white" transform="translate(0.5 0.5)"/>
</clipPath>
</defs>
</svg>
